<svg width="188" height="186" viewBox="0 0 188 186" fill="none" xmlns="http://www.w3.org/2000/svg">
<path d="M187.974 70.877C183.749 54.0612 174.796 38.7294 162.124 26.607C149.453 14.4846 133.565 6.0525 116.248 2.25964C98.9315 -1.53323 80.8734 -0.536398 64.1059 5.13797C47.3384 10.8123 32.5268 20.9391 21.3378 34.3786C10.1489 47.8182 3.02657 64.0373 0.772324 81.2109C-1.48193 98.3844 1.22135 115.831 8.57797 131.587C15.9346 147.344 27.6526 160.784 42.4135 170.397C57.1743 180.01 74.3923 185.414 92.1299 186L93.0916 158.303C80.6381 157.892 68.5494 154.098 58.1858 147.349C47.8222 140.599 39.595 131.163 34.4299 120.1C29.2649 109.038 27.3669 96.7884 28.9496 84.7308C30.5323 72.6733 35.5329 61.2859 43.3886 51.85C51.2444 42.414 61.6436 35.3041 73.416 31.3201C85.1885 27.3362 97.867 26.6363 110.025 29.2992C122.183 31.9622 133.338 37.8823 142.235 46.3935C151.132 54.9046 157.417 65.669 160.384 77.4754L187.974 70.877Z" fill="#4D91FF"/>
</svg>
