<svg width="27" height="26" viewBox="0 0 27 26" fill="none" xmlns="http://www.w3.org/2000/svg">
<path d="M23.9231 17.2723C23.1979 18.9236 22.0637 20.3788 20.6197 21.5105C19.1756 22.6423 17.4656 23.4161 15.6392 23.7645C13.8128 24.1128 11.9256 24.025 10.1426 23.5087C8.3596 22.9925 6.73506 22.0635 5.41102 20.803C4.08698 19.5424 3.10376 17.9888 2.54732 16.2778C1.99088 14.5668 1.87815 12.7506 2.21901 10.988C2.55986 9.22541 3.34391 7.57003 4.5026 6.16662C5.6613 4.76321 7.15937 3.65449 8.86584 2.9374M24.8235 13.0026C24.8235 11.5611 24.5287 10.1338 23.9559 8.80215C23.3831 7.47046 22.5435 6.26046 21.485 5.24122C20.4266 4.22199 19.17 3.41349 17.7871 2.86188C16.4042 2.31028 14.922 2.02637 13.4252 2.02637V13.0026H24.8235Z" stroke="#B3B3B3" stroke-width="4" stroke-linecap="round" stroke-linejoin="round"/>
</svg>
