<svg xmlns="http://www.w3.org/2000/svg" width="20" height="22" fill="none" viewBox="0 0 20 22"><path stroke="#fff" stroke-linecap="round" stroke-width="1.5" d="M5.88372 8.95349H14.0698M5.88372 13.0465H14.0698M5.88372 17.1395H9.97674M5.88372 2.81395C5.88372 3.94421 6.79998 4.86047 7.93023 4.86047H12.0233C13.1535 4.86047 14.0698 3.94421 14.0698 2.81395M5.88372 2.81395C5.88372 1.6837 6.79998 0.767442 7.93023 0.767442H12.0233C13.1535 0.767442 14.0698 1.6837 14.0698 2.81395M5.88372 2.81395H4.86047C2.59995 2.81395 0.767442 4.64646 0.767442 6.90698V17.1395C0.767442 19.4 2.59995 21.2326 4.86046 21.2326H15.093C17.3535 21.2326 19.186 19.4 19.186 17.1395V6.90698C19.186 4.64646 17.3535 2.81395 15.093 2.81395H14.0698"/></svg>