<svg xmlns="http://www.w3.org/2000/svg" width="10" height="7" fill="none" viewBox="0 0 10 7"><path fill="#EFF1F3" stroke="#fff" d="M1.0095 0.502786C1.13354 0.502786 1.25949 0.554562 1.35713 0.657943L4.6655 4.18334L5.03179 4.5732L5.39808 4.18334L8.68387 0.692313C8.78037 0.606799 8.89783 0.566808 9.01284 0.571527C9.12989 0.576399 9.24681 0.627975 9.33887 0.725702C9.43179 0.824417 9.49147 0.962514 9.49697 1.11359C9.50229 1.26254 9.45374 1.40339 9.36931 1.51032L5.37157 5.75749C5.27536 5.85886 5.15172 5.91011 5.02983 5.91069H5.02885C4.96716 5.91106 4.9051 5.89888 4.84619 5.87337C4.7871 5.84773 4.73066 5.80855 4.6822 5.75749L0.661871 1.48676C0.563172 1.38191 0.502786 1.23293 0.502786 1.07235C0.502837 0.911873 0.563243 0.763723 0.661871 0.658925C0.759552 0.555162 0.885258 0.502839 1.0095 0.502786Z"/></svg>