<svg xmlns="http://www.w3.org/2000/svg" width="10" height="7" fill="none" viewBox="0 0 10 7"><path fill="#EFF1F3" stroke="#fff" d="M1.0095 0.502786C1.10361 0.502786 1.19815 0.532295 1.28053 0.590185L1.35909 0.657943L4.66649 4.15486L5.03179 4.54079L5.3971 4.15584L8.6878 0.686421C8.78312 0.60491 8.89878 0.5659 9.01284 0.570545C9.1312 0.575387 9.24908 0.627039 9.34083 0.723738C9.43326 0.82117 9.4915 0.956894 9.49697 1.10476C9.5023 1.2502 9.45463 1.38826 9.37127 1.49363L5.37255 5.70938C5.2767 5.80959 5.15302 5.86102 5.02983 5.86159H5.02885C4.96666 5.86196 4.90434 5.84966 4.84521 5.82427C4.78585 5.79871 4.72947 5.75983 4.68122 5.70938L0.660889 1.47104C0.562705 1.36754 0.502818 1.22169 0.502786 1.06449C0.502786 0.907247 0.562679 0.761472 0.660889 0.657943C0.758182 0.555436 0.88398 0.502838 1.0095 0.502786Z"/></svg>