<svg xmlns="http://www.w3.org/2000/svg" width="17" height="9" fill="none" viewBox="0 0 17 9"><path fill="#fff" d="M9.6029 8.58978L16.6344 1.99466C17.4642 1.21869 16.7898 4.42369e-07 15.5304 4.42369e-07H1.46738C1.18553 -0.000197853 0.909578 0.0662735 0.672579 0.191455C0.435579 0.316636 0.247578 0.49522 0.131084 0.705822C0.0145931 0.916423 -0.0254517 1.15011 0.015749 1.37891C0.0569496 1.60771 0.177649 1.82191 0.36339 1.99586L7.39491 8.58858C7.53253 8.7178 7.70224 8.82137 7.89265 8.89233C8.08306 8.96329 8.28977 9 8.49891 9C8.70804 9 8.91475 8.96329 9.10516 8.89233C9.29557 8.82137 9.46528 8.719 9.6029 8.58978Z"/></svg>